<svg width="500" height="500" viewBox="0 0 500 500" fill="none" xmlns="http://www.w3.org/2000/svg">
<path d="M430 226C430.365 240.583 428.757 255.148 425.22 269.3C412.07 321.81 371.22 370.53 319.3 389.87C239.3 419.66 162.74 379.12 115.41 315.35C78.2797 265.35 82.9997 189.7 115 138.28C118.355 132.896 122.028 127.717 126 122.77C181.9 53.1999 296.14 34.7699 366.07 94.3899C405 127.59 428.77 176.06 430 226Z" fill="#A3B7D3"/>
<path d="M283.52 193.33H359.36C362.395 193.329 365.397 193.966 368.17 195.199C370.944 196.432 373.427 198.234 375.46 200.488C377.492 202.742 379.028 205.398 379.969 208.284C380.91 211.17 381.234 214.221 380.92 217.24C378.78 237.89 371.99 268.24 369.13 292.95C367.918 303.414 362.902 313.067 355.036 320.074C347.171 327.081 337.004 330.951 326.47 330.95H258L283.52 193.33Z" fill="#337ACC"/>
<path d="M274.07 193.33H346.32C349.355 193.329 352.357 193.966 355.131 195.199C357.905 196.432 360.389 198.234 362.422 200.488C364.456 202.742 365.993 205.398 366.935 208.283C367.877 211.169 368.202 214.221 367.89 217.24C365.75 237.89 362.54 256.59 359.68 281.34C358.468 291.804 353.452 301.457 345.586 308.464C337.72 315.47 327.554 319.341 317.02 319.34H248.51L274.07 193.33Z" fill="#054BAF"/>
<path d="M309.51 331.76H300.65V443.17H309.51V331.76Z" fill="#011843"/>
<path d="M276.4 330.88H328.4V331.47C328.4 332.247 328.092 332.992 327.542 333.542C326.993 334.091 326.247 334.4 325.47 334.4H279.33C278.553 334.4 277.808 334.091 277.259 333.542C276.709 332.992 276.4 332.247 276.4 331.47V330.88Z" fill="#011843"/>
<path d="M268.76 453.66C268.758 452.148 269.055 450.65 269.633 449.252C270.211 447.855 271.058 446.585 272.127 445.515C273.196 444.445 274.466 443.596 275.863 443.017C277.26 442.438 278.757 442.14 280.27 442.14H333.43C334.947 442.134 336.45 442.427 337.854 443.003C339.257 443.579 340.533 444.426 341.608 445.497C342.683 446.567 343.536 447.839 344.118 449.24C344.7 450.641 345 452.143 345 453.66V454.11" stroke="#011843" stroke-width="2.66" stroke-linecap="round" stroke-linejoin="round"/>
<path d="M323.801 453.55V442.03" stroke="#011843" stroke-width="2.66" stroke-miterlimit="10"/>
<path d="M289.24 453.55V442.03" stroke="#011843" stroke-width="2.66" stroke-miterlimit="10"/>
<path d="M269.67 459.26C272.663 459.26 275.09 456.833 275.09 453.84C275.09 450.847 272.663 448.42 269.67 448.42C266.677 448.42 264.25 450.847 264.25 453.84C264.25 456.833 266.677 459.26 269.67 459.26Z" fill="#011843"/>
<path d="M269.67 455.59C270.636 455.59 271.42 454.806 271.42 453.84C271.42 452.873 270.636 452.09 269.67 452.09C268.703 452.09 267.92 452.873 267.92 453.84C267.92 454.806 268.703 455.59 269.67 455.59Z" stroke="#DBE2EF" stroke-width="0.82" stroke-linecap="round" stroke-linejoin="round"/>
<path d="M289.67 459.26C292.663 459.26 295.09 456.833 295.09 453.84C295.09 450.847 292.663 448.42 289.67 448.42C286.677 448.42 284.25 450.847 284.25 453.84C284.25 456.833 286.677 459.26 289.67 459.26Z" fill="#011843"/>
<path d="M289.67 455.59C290.636 455.59 291.42 454.806 291.42 453.84C291.42 452.873 290.636 452.09 289.67 452.09C288.703 452.09 287.92 452.873 287.92 453.84C287.92 454.806 288.703 455.59 289.67 455.59Z" stroke="#DBE2EF" stroke-width="0.82" stroke-linecap="round" stroke-linejoin="round"/>
<path d="M324.801 459.26C327.794 459.26 330.221 456.833 330.221 453.84C330.221 450.847 327.794 448.42 324.801 448.42C321.807 448.42 319.381 450.847 319.381 453.84C319.381 456.833 321.807 459.26 324.801 459.26Z" fill="#011843"/>
<path d="M324.801 455.59C325.767 455.59 326.551 454.806 326.551 453.84C326.551 452.873 325.767 452.09 324.801 452.09C323.834 452.09 323.051 452.873 323.051 453.84C323.051 454.806 323.834 455.59 324.801 455.59Z" stroke="#DBE2EF" stroke-width="0.82" stroke-linecap="round" stroke-linejoin="round"/>
<path d="M344.801 459.26C347.794 459.26 350.221 456.833 350.221 453.84C350.221 450.847 347.794 448.42 344.801 448.42C341.807 448.42 339.381 450.847 339.381 453.84C339.381 456.833 341.807 459.26 344.801 459.26Z" fill="#011843"/>
<path d="M344.801 455.59C345.767 455.59 346.551 454.806 346.551 453.84C346.551 452.873 345.767 452.09 344.801 452.09C343.834 452.09 343.051 452.873 343.051 453.84C343.051 454.806 343.834 455.59 344.801 455.59Z" stroke="#DBE2EF" stroke-width="0.82" stroke-linecap="round" stroke-linejoin="round"/>
<path d="M168.641 280.53L178.881 457.83C178.891 458.075 178.852 458.318 178.767 458.547C178.682 458.777 178.552 458.987 178.386 459.166C178.22 459.345 178.02 459.49 177.798 459.592C177.576 459.694 177.336 459.751 177.091 459.76C176.847 459.769 176.603 459.73 176.374 459.645C176.145 459.56 175.935 459.431 175.756 459.265C175.576 459.099 175.432 458.899 175.33 458.677C175.228 458.455 175.171 458.215 175.161 457.97L155.691 280.54" fill="white"/>
<path d="M155.691 280.49L168.651 280.54L156.391 286.75L155.691 280.49Z" fill="#011843"/>
<path d="M250.471 466.97C378.739 466.97 482.721 465.215 482.721 463.05C482.721 460.885 378.739 459.13 250.471 459.13C122.203 459.13 18.2207 460.885 18.2207 463.05C18.2207 465.215 122.203 466.97 250.471 466.97Z" fill="#A3B7D3"/>
<path d="M154.521 169.14H103.431C102.044 169.14 100.673 168.837 99.4156 168.251C98.1579 167.666 97.0433 166.813 96.1498 165.752C95.2563 164.691 94.6055 163.447 94.243 162.108C93.8804 160.769 93.8149 159.367 94.051 158L98.621 131.86C99.013 129.657 100.168 127.663 101.883 126.225C103.598 124.788 105.764 124.001 108.001 124H159.101C160.491 124.001 161.863 124.306 163.123 124.894C164.382 125.481 165.498 126.337 166.391 127.401C167.285 128.466 167.935 129.712 168.296 131.054C168.657 132.396 168.72 133.801 168.481 135.17L163.901 161.3C163.508 163.501 162.353 165.493 160.638 166.927C158.922 168.361 156.757 169.144 154.521 169.14Z" fill="#337ACC"/>
<path d="M140.361 165.39H150.771C152.712 165.385 154.597 164.742 156.137 163.56C157.676 162.379 158.785 160.724 159.291 158.85C160.201 155.5 160.541 152.19 161.361 149.06" stroke="#DBE2EF" stroke-width="0.66" stroke-linecap="round" stroke-linejoin="round"/>
<path d="M119.41 166.4L124.41 176.24C124.582 176.671 124.868 177.047 125.239 177.327C125.609 177.607 126.049 177.78 126.511 177.828C126.973 177.875 127.438 177.795 127.858 177.596C128.277 177.397 128.634 177.087 128.89 176.7L136.68 166" fill="#337ACC"/>
<path d="M116.631 148.26C118.111 148.26 119.311 147.06 119.311 145.58C119.311 144.1 118.111 142.9 116.631 142.9C115.151 142.9 113.951 144.1 113.951 145.58C113.951 147.06 115.151 148.26 116.631 148.26Z" stroke="#DBE2EF" stroke-width="0.66" stroke-miterlimit="10"/>
<path d="M134.001 145.58C134.003 146.112 133.847 146.633 133.553 147.077C133.258 147.521 132.839 147.867 132.347 148.072C131.856 148.277 131.315 148.332 130.792 148.229C130.27 148.127 129.79 147.871 129.413 147.496C129.035 147.12 128.778 146.64 128.674 146.118C128.569 145.596 128.622 145.055 128.825 144.563C129.028 144.071 129.373 143.65 129.816 143.354C130.258 143.058 130.779 142.9 131.311 142.9C132.023 142.9 132.705 143.182 133.21 143.684C133.714 144.187 133.998 144.868 134.001 145.58Z" stroke="#DBE2EF" stroke-width="0.66" stroke-miterlimit="10"/>
<path d="M145.891 148.26C147.371 148.26 148.571 147.06 148.571 145.58C148.571 144.1 147.371 142.9 145.891 142.9C144.411 142.9 143.211 144.1 143.211 145.58C143.211 147.06 144.411 148.26 145.891 148.26Z" stroke="#DBE2EF" stroke-width="0.66" stroke-miterlimit="10"/>
<path d="M162.23 145.06C162.5 143.78 162.77 142.5 163.05 141.23" stroke="#DBE2EF" stroke-width="0.66" stroke-linecap="round" stroke-linejoin="round"/>
<path d="M253.901 108.027C257.241 94.0386 248.609 79.9911 234.621 76.6509C220.633 73.3107 206.585 81.9427 203.245 95.9309C199.905 109.919 208.537 123.967 222.525 127.307C236.513 130.647 250.561 122.015 253.901 108.027Z" fill="#F4F4F4"/>
<path d="M245.091 103.72V101C245.091 100.66 244.956 100.335 244.716 100.095C244.476 99.8548 244.151 99.72 243.811 99.72H242.661C242.189 99.7126 241.732 99.5571 241.353 99.2754C240.974 98.9936 240.694 98.5999 240.551 98.15C240.471 97.92 240.381 97.68 240.281 97.45C240.103 96.9916 240.076 96.4885 240.204 96.0137C240.332 95.5388 240.607 95.1172 240.991 94.81L241.791 94.17C241.921 94.0644 242.028 93.9343 242.108 93.7872C242.187 93.64 242.236 93.4786 242.253 93.3123C242.27 93.146 242.253 92.9781 242.205 92.8181C242.157 92.6581 242.077 92.5092 241.971 92.38L240.221 90.23C240.116 90.0996 239.987 89.9913 239.84 89.9112C239.693 89.8311 239.532 89.7807 239.366 89.7631C239.199 89.7454 239.031 89.7608 238.871 89.8083C238.711 89.8558 238.561 89.9345 238.431 90.04L237.431 90.86C237.027 91.1785 236.538 91.3695 236.025 91.4087C235.512 91.4479 234.999 91.3334 234.551 91.08C234.033 90.7985 233.495 90.5546 232.941 90.35C232.45 90.1802 232.023 89.8639 231.717 89.4437C231.411 89.0235 231.242 88.5196 231.231 88V86.86C231.231 86.7089 231.202 86.5594 231.144 86.4199C231.086 86.2804 231.001 86.1536 230.895 86.0468C230.788 85.94 230.661 85.8553 230.521 85.7975C230.382 85.7397 230.232 85.71 230.081 85.71H227.081C226.93 85.71 226.781 85.7397 226.641 85.7975C226.502 85.8553 226.375 85.94 226.268 86.0468C226.161 86.1536 226.077 86.2804 226.019 86.4199C225.961 86.5594 225.931 86.7089 225.931 86.86V88C225.925 88.5049 225.763 88.9955 225.467 89.4051C225.172 89.8148 224.758 90.1237 224.281 90.29C223.669 90.5171 223.075 90.7877 222.501 91.1C222.076 91.3465 221.586 91.4592 221.096 91.4235C220.605 91.3879 220.137 91.2054 219.751 90.9L218.911 90.21C218.581 89.9417 218.157 89.8153 217.734 89.8584C217.31 89.9015 216.921 90.1106 216.651 90.44L215.321 92.08C215.053 92.4105 214.927 92.8339 214.97 93.2574C215.013 93.681 215.222 94.0702 215.551 94.34L216.381 95.01C216.704 95.2863 216.93 95.6582 217.027 96.0717C217.124 96.4852 217.087 96.9189 216.921 97.31C216.791 97.63 216.661 97.96 216.551 98.31C216.423 98.7029 216.177 99.0466 215.845 99.2937C215.514 99.5409 215.114 99.6793 214.701 99.69H213.391C213.052 99.69 212.726 99.8248 212.486 100.065C212.246 100.305 212.111 100.63 212.111 100.97V103.72C212.111 104.059 212.246 104.385 212.486 104.625C212.726 104.865 213.052 105 213.391 105H214.911C215.291 105 215.66 105.12 215.967 105.343C216.274 105.565 216.503 105.879 216.621 106.24C216.791 106.72 216.981 107.24 217.191 107.64C217.358 107.977 217.415 108.358 217.354 108.73C217.293 109.101 217.117 109.444 216.851 109.71L215.801 110.76C215.68 110.881 215.584 111.024 215.519 111.182C215.454 111.34 215.42 111.509 215.42 111.68C215.42 111.851 215.454 112.02 215.519 112.178C215.584 112.336 215.68 112.479 215.801 112.6L217.721 114.52C217.842 114.641 217.985 114.737 218.143 114.802C218.301 114.868 218.47 114.901 218.641 114.901C218.812 114.901 218.981 114.868 219.139 114.802C219.297 114.737 219.441 114.641 219.561 114.52L220.081 114C220.447 113.626 220.92 113.376 221.436 113.286C221.951 113.197 222.481 113.271 222.951 113.5C223.397 113.721 223.854 113.918 224.321 114.09C224.801 114.268 225.214 114.591 225.502 115.014C225.791 115.436 225.941 115.938 225.931 116.45V117.09C225.931 117.246 225.962 117.4 226.022 117.544C226.082 117.688 226.17 117.818 226.28 117.928C226.391 118.038 226.522 118.124 226.667 118.183C226.811 118.242 226.966 118.271 227.121 118.27H230.121C230.434 118.27 230.734 118.146 230.956 117.924C231.177 117.703 231.301 117.403 231.301 117.09V116.23C231.305 115.759 231.457 115.301 231.735 114.92C232.013 114.54 232.404 114.257 232.851 114.11C233.388 113.916 233.913 113.689 234.421 113.43C234.861 113.212 235.36 113.144 235.842 113.236C236.324 113.328 236.763 113.575 237.091 113.94L237.751 114.65C237.87 114.778 238.013 114.881 238.172 114.954C238.331 115.027 238.502 115.068 238.677 115.074C238.851 115.081 239.026 115.053 239.189 114.992C239.353 114.931 239.503 114.839 239.631 114.72L241.571 112.91C241.699 112.791 241.803 112.648 241.876 112.489C241.948 112.331 241.989 112.159 241.996 111.984C242.002 111.81 241.974 111.636 241.914 111.472C241.853 111.308 241.76 111.158 241.641 111.03L240.581 109.89C240.268 109.545 240.063 109.115 239.994 108.654C239.925 108.193 239.993 107.722 240.191 107.3C240.301 107.07 240.391 106.83 240.481 106.59C240.669 106.118 240.994 105.714 241.415 105.43C241.837 105.146 242.334 104.996 242.841 105H243.841C244.176 104.992 244.494 104.854 244.727 104.615C244.961 104.375 245.091 104.054 245.091 103.72ZM228.571 108.6C227.302 108.6 226.06 108.223 225.005 107.518C223.949 106.813 223.126 105.81 222.64 104.637C222.154 103.464 222.027 102.173 222.275 100.927C222.522 99.6821 223.134 98.5382 224.032 97.6403C224.93 96.7425 226.073 96.131 227.319 95.8833C228.564 95.6356 229.855 95.7627 231.028 96.2487C232.201 96.7346 233.204 97.5574 233.909 98.6132C234.615 99.669 234.991 100.91 234.991 102.18C234.993 103.023 234.827 103.859 234.505 104.638C234.183 105.418 233.71 106.126 233.114 106.723C232.517 107.319 231.809 107.792 231.03 108.114C230.25 108.436 229.415 108.601 228.571 108.6Z" fill="#337ACC"/>
<path d="M394.811 241.31C394.514 241.313 394.221 241.381 393.953 241.508C393.684 241.635 393.447 241.819 393.256 242.048C393.066 242.276 392.928 242.543 392.851 242.83C392.774 243.117 392.761 243.417 392.811 243.71L396.271 263.53C396.569 264.751 397.268 265.836 398.257 266.612C399.245 267.388 400.465 267.81 401.721 267.81H410.891C412.168 267.809 413.405 267.374 414.401 266.576C415.397 265.779 416.092 264.665 416.371 263.42L419.071 243.64C419.12 243.351 419.104 243.055 419.025 242.773C418.947 242.491 418.807 242.23 418.616 242.007C418.426 241.785 418.188 241.608 417.921 241.487C417.654 241.367 417.364 241.306 417.071 241.31H394.811Z" fill="#011843"/>
<path d="M398.691 253.72C398.691 254.774 398.379 255.805 397.793 256.681C397.207 257.558 396.375 258.241 395.401 258.644C394.427 259.048 393.355 259.153 392.321 258.948C391.287 258.742 390.338 258.234 389.592 257.489C388.847 256.744 388.339 255.794 388.134 254.76C387.928 253.726 388.034 252.654 388.437 251.68C388.84 250.707 389.524 249.874 390.4 249.288C391.277 248.703 392.307 248.39 393.361 248.39C394.775 248.39 396.131 248.952 397.13 249.951C398.13 250.951 398.691 252.307 398.691 253.72Z" stroke="#011843" stroke-width="2" stroke-linecap="round" stroke-linejoin="round"/>
<path d="M411.232 241.25C411.056 240.201 411.098 239.128 411.354 238.096C411.61 237.063 412.076 236.095 412.722 235.25C413.882 233.84 415.382 232.71 416.182 231.03C417.098 229.093 417.384 226.918 417.002 224.81C416.596 222.449 415.345 220.316 413.482 218.81C410.952 216.89 407.912 217.26 404.912 217.1C404.522 217.1 404.132 217.05 403.732 217C399.112 216.38 397.482 213 394.732 208.08C394.141 210.443 393.875 212.875 393.942 215.31C393.978 216.531 394.263 217.731 394.779 218.839C395.295 219.946 396.031 220.936 396.942 221.75C400.122 224.3 404.882 222.2 408.262 224.5C409.337 225.292 410.127 226.411 410.512 227.69C410.862 229.63 408.942 232.38 407.042 232.86C405.142 233.34 403.182 233.16 401.492 234.19C399.802 235.22 399.242 237.44 399.242 239.42C399.242 240.54 399.242 241.32 399.242 241.32" fill="#F4F4F4"/>
<path d="M394.031 249.56L418.111 249.64" stroke="#DBE2EF" stroke-width="0.82" stroke-linecap="round" stroke-linejoin="round"/>
<path d="M395.441 257.14H416.941" stroke="#DBE2EF" stroke-width="0.82" stroke-linecap="round" stroke-linejoin="round"/>
<path d="M415.111 260.06C415.511 256 415.905 251.94 416.291 247.88" stroke="#DBE2EF" stroke-width="0.82" stroke-linecap="round" stroke-linejoin="round"/>
<path d="M151.442 86.0499L151.522 85.9899C151.616 85.9216 151.696 85.8351 151.757 85.7355C151.818 85.6359 151.859 85.5251 151.876 85.4097C151.894 85.2943 151.889 85.1765 151.86 85.0633C151.832 84.95 151.782 84.8435 151.712 84.7499L147.172 78.5099C147.032 78.3187 146.822 78.1905 146.588 78.153C146.354 78.1156 146.114 78.1719 145.922 78.3099C145.299 78.7633 144.594 79.0892 143.845 79.2688C143.096 79.4484 142.319 79.4781 141.559 79.3564C140.799 79.2346 140.07 78.9638 139.415 78.5593C138.76 78.1549 138.191 77.625 137.742 76.9999L132.862 70.3099C132.409 69.6884 132.082 68.9836 131.902 68.2359C131.722 67.4881 131.69 66.7122 131.81 65.9524C131.93 65.1926 132.199 64.4639 132.6 63.808C133.002 63.1521 133.529 62.5819 134.152 62.1299C134.247 62.0607 134.327 61.9733 134.388 61.8728C134.449 61.7723 134.49 61.6607 134.507 61.5445C134.525 61.4283 134.519 61.3097 134.491 61.1957C134.463 61.0816 134.412 60.9743 134.342 60.8799L130.682 55.8799C130.542 55.6909 130.333 55.5649 130.101 55.5293C129.869 55.4937 129.632 55.5515 129.442 55.6899L129.362 55.7499C128.085 56.6774 127.004 57.8475 126.181 59.1932C125.357 60.5389 124.807 62.0339 124.562 63.5924C124.317 65.151 124.381 66.7426 124.752 68.2763C125.122 69.8099 125.792 71.2553 126.722 72.5299L134.662 83.4199C135.59 84.6955 136.761 85.7755 138.107 86.5982C139.453 87.4209 140.948 87.97 142.506 88.2143C144.065 88.4586 145.656 88.3932 147.19 88.0218C148.723 87.6504 150.168 86.9803 151.442 86.0499Z" fill="#011843"/>
<path d="M150.361 67.5601C151.742 67.5601 152.861 66.4408 152.861 65.0601C152.861 63.6793 151.742 62.5601 150.361 62.5601C148.981 62.5601 147.861 63.6793 147.861 65.0601C147.861 66.4408 148.981 67.5601 150.361 67.5601Z" stroke="#337ACC" stroke-miterlimit="10"/>
<path d="M169.361 67.5601C170.742 67.5601 171.861 66.4408 171.861 65.0601C171.861 63.6793 170.742 62.5601 169.361 62.5601C167.981 62.5601 166.861 63.6793 166.861 65.0601C166.861 66.4408 167.981 67.5601 169.361 67.5601Z" stroke="#337ACC" stroke-miterlimit="10"/>
<path d="M159.361 67.5601C160.742 67.5601 161.861 66.4408 161.861 65.0601C161.861 63.6793 160.742 62.5601 159.361 62.5601C157.981 62.5601 156.861 63.6793 156.861 65.0601C156.861 66.4408 157.981 67.5601 159.361 67.5601Z" stroke="#011843" stroke-miterlimit="10"/>
<path d="M367 153.71L368.46 164.16C368.74 166.21 370.36 166.83 371.67 165.38L379.9 156.28" fill="#011843"/>
<path d="M409.681 158.72H338.681C337.728 158.72 336.787 158.504 335.929 158.089C335.071 157.673 334.317 157.07 333.725 156.323C333.133 155.576 332.717 154.704 332.509 153.774C332.3 152.844 332.305 151.879 332.521 150.95L337.521 129.6C337.846 128.213 338.63 126.975 339.747 126.089C340.863 125.204 342.246 124.721 343.671 124.72H414.671C415.625 124.719 416.567 124.933 417.426 125.348C418.285 125.762 419.038 126.366 419.63 127.114C420.222 127.862 420.637 128.734 420.843 129.665C421.05 130.597 421.042 131.562 420.821 132.49L415.821 153.85C415.495 155.234 414.712 156.468 413.597 157.352C412.483 158.236 411.104 158.718 409.681 158.72Z" fill="#011843"/>
<path d="M401.57 155.35H406.4C407.832 155.348 409.223 154.869 410.353 153.989C411.482 153.109 412.287 151.878 412.64 150.49L414.23 144.18" stroke="#DBE2EF" stroke-width="0.66" stroke-linecap="round" stroke-linejoin="round"/>
<path d="M415 141.06C415.17 140.31 415.34 139.56 415.5 138.81" stroke="#DBE2EF" stroke-width="0.66" stroke-linecap="round" stroke-linejoin="round"/>
<path d="M348.861 131.56H409.961" stroke="#DBE2EF" stroke-width="0.66" stroke-linecap="round" stroke-linejoin="round"/>
<path d="M346.361 139.56H386.371" stroke="#DBE2EF" stroke-width="0.66" stroke-linecap="round" stroke-linejoin="round"/>
<path d="M344.361 146.56H396.401" stroke="#DBE2EF" stroke-width="0.66" stroke-linecap="round" stroke-linejoin="round"/>
<path d="M300.361 46.0601H229.691C227.304 46.0601 225.015 45.1118 223.327 43.424C221.64 41.7362 220.691 39.447 220.691 37.0601C220.691 34.6731 221.64 32.3839 223.327 30.6961C225.015 29.0083 227.304 28.0601 229.691 28.0601H300.361C302.748 28.0601 305.038 29.0083 306.725 30.6961C308.413 32.3839 309.361 34.6731 309.361 37.0601C309.361 39.447 308.413 41.7362 306.725 43.424C305.038 45.1118 302.748 46.0601 300.361 46.0601Z" fill="#337ACC"/>
<path d="M237.81 33.0498L238.93 35.3098C238.952 35.3545 238.984 35.3933 239.024 35.4229C239.064 35.4525 239.111 35.472 239.16 35.4798L241.65 35.8398C241.706 35.8495 241.757 35.8741 241.8 35.9109C241.842 35.9478 241.874 35.9954 241.891 36.0488C241.909 36.1022 241.911 36.1594 241.899 36.2142C241.886 36.2689 241.859 36.3193 241.82 36.3598L240 38.1198C239.962 38.1527 239.934 38.1951 239.918 38.2425C239.903 38.29 239.9 38.3409 239.91 38.3898L240.33 40.8698C240.341 40.9259 240.336 40.984 240.315 41.0372C240.294 41.0904 240.258 41.1365 240.212 41.1701C240.166 41.2038 240.111 41.2235 240.054 41.227C239.997 41.2305 239.94 41.2176 239.89 41.1898L237.68 39.9998C237.638 39.9752 237.589 39.9623 237.54 39.9623C237.491 39.9623 237.443 39.9752 237.4 39.9998L235.17 41.1698C235.12 41.1976 235.063 41.2105 235.006 41.207C234.949 41.2035 234.894 41.1838 234.848 41.1501C234.802 41.1165 234.766 41.0704 234.745 41.0172C234.724 40.964 234.719 40.9059 234.73 40.8498L235.15 38.3698C235.161 38.3209 235.158 38.27 235.142 38.2225C235.126 38.1751 235.098 38.1327 235.06 38.0998L233.26 36.3398C233.221 36.2993 233.194 36.2489 233.182 36.1942C233.169 36.1394 233.172 36.0822 233.189 36.0288C233.207 35.9754 233.238 35.9278 233.281 35.8909C233.323 35.8541 233.375 35.8295 233.43 35.8198L235.92 35.4598C235.969 35.452 236.016 35.4325 236.056 35.4029C236.096 35.3733 236.128 35.3345 236.15 35.2898L237.27 33.0298C237.297 32.9799 237.337 32.9385 237.385 32.9103C237.434 32.8821 237.49 32.8682 237.546 32.8703C237.603 32.8724 237.658 32.8904 237.704 32.9221C237.751 32.9539 237.788 32.9981 237.81 33.0498Z" fill="#F4F4F4"/>
<path d="M251.561 33.05L252.671 35.31C252.695 35.3538 252.727 35.3918 252.767 35.4212C252.807 35.4506 252.853 35.4707 252.901 35.48L255.391 35.84C255.447 35.8497 255.498 35.8743 255.541 35.9111C255.583 35.9479 255.615 35.9956 255.632 36.049C255.65 36.1024 255.653 36.1596 255.64 36.2143C255.628 36.2691 255.6 36.3195 255.561 36.36L253.761 38.12C253.725 38.154 253.698 38.1965 253.682 38.2437C253.667 38.2908 253.663 38.3411 253.671 38.39L254.101 40.87C254.11 40.9265 254.102 40.9842 254.08 41.0368C254.057 41.0893 254.021 41.1346 253.974 41.1677C253.928 41.2009 253.873 41.2205 253.816 41.2244C253.759 41.2283 253.702 41.2164 253.651 41.19L251.431 40C251.387 39.9755 251.337 39.9626 251.286 39.9626C251.236 39.9626 251.186 39.9755 251.141 40L248.911 41.17C248.861 41.1977 248.805 41.2106 248.748 41.2071C248.69 41.2037 248.636 41.1839 248.589 41.1503C248.543 41.1167 248.508 41.0706 248.487 41.0174C248.466 40.9642 248.46 40.9061 248.471 40.85L248.901 38.37C248.908 38.3211 248.903 38.2715 248.887 38.2248C248.871 38.1781 248.846 38.1354 248.811 38.1L247.001 36.36C246.959 36.3217 246.928 36.2721 246.913 36.217C246.898 36.1619 246.899 36.1036 246.916 36.049C246.932 35.9943 246.964 35.9456 247.008 35.9086C247.052 35.8716 247.105 35.8478 247.161 35.84L249.661 35.48C249.709 35.4689 249.754 35.4481 249.794 35.4188C249.834 35.3896 249.867 35.3526 249.891 35.31L251.001 33.05C251.027 32.997 251.066 32.9523 251.116 32.921C251.165 32.8897 251.223 32.873 251.281 32.873C251.34 32.873 251.397 32.8897 251.447 32.921C251.497 32.9523 251.536 32.997 251.561 33.05Z" fill="#F4F4F4"/>
<path d="M265.3 33.0499L266.41 35.3099C266.435 35.3525 266.468 35.3895 266.508 35.4187C266.547 35.448 266.593 35.4688 266.64 35.4799L269.14 35.8399C269.196 35.8496 269.247 35.8742 269.29 35.911C269.332 35.9478 269.364 35.9955 269.381 36.0489C269.399 36.1023 269.402 36.1595 269.389 36.2142C269.376 36.269 269.349 36.3194 269.31 36.3599L267.5 38.1199C267.466 38.1553 267.44 38.198 267.425 38.2447C267.409 38.2914 267.404 38.341 267.41 38.3899L267.84 40.8699C267.851 40.926 267.846 40.9841 267.825 41.0373C267.804 41.0905 267.769 41.1366 267.722 41.1702C267.676 41.2039 267.621 41.2236 267.564 41.2271C267.507 41.2305 267.45 41.2177 267.4 41.1899L265.17 39.9999C265.126 39.9754 265.076 39.9625 265.025 39.9625C264.975 39.9625 264.925 39.9754 264.88 39.9999L262.66 41.1699C262.61 41.1963 262.553 41.2082 262.496 41.2043C262.439 41.2004 262.384 41.1808 262.337 41.1477C262.291 41.1145 262.254 41.0692 262.232 41.0167C262.21 40.9641 262.202 40.9064 262.21 40.8499L262.64 38.3699C262.649 38.321 262.645 38.2707 262.629 38.2236C262.614 38.1764 262.587 38.1339 262.55 38.0999L260.75 36.3399C260.712 36.2994 260.684 36.249 260.672 36.1942C260.659 36.1395 260.662 36.0823 260.679 36.0289C260.697 35.9755 260.729 35.9278 260.771 35.891C260.813 35.8542 260.865 35.8296 260.92 35.8199L263.41 35.4599C263.459 35.4506 263.505 35.4305 263.545 35.4011C263.585 35.3717 263.617 35.3337 263.64 35.2899L264.75 33.0299C264.778 32.9805 264.819 32.9397 264.869 32.912C264.919 32.8843 264.975 32.8707 265.031 32.8728C265.088 32.8748 265.143 32.8924 265.191 32.9237C265.238 32.9549 265.276 32.9986 265.3 33.0499Z" fill="#F4F4F4"/>
<path d="M279.001 33.0499L280.121 35.3099C280.143 35.3546 280.175 35.3934 280.215 35.423C280.255 35.4526 280.302 35.4721 280.351 35.4799L282.841 35.8399C282.896 35.8496 282.948 35.8742 282.99 35.911C283.033 35.9478 283.064 35.9955 283.082 36.0489C283.099 36.1023 283.102 36.1594 283.089 36.2142C283.077 36.269 283.05 36.3193 283.011 36.3599L281.211 38.1199C281.173 38.1527 281.145 38.1951 281.129 38.2426C281.113 38.2901 281.11 38.3409 281.121 38.3899L281.541 40.8699C281.552 40.926 281.546 40.984 281.526 41.0372C281.505 41.0905 281.469 41.1366 281.423 41.1702C281.376 41.2038 281.322 41.2235 281.265 41.227C281.207 41.2305 281.151 41.2176 281.101 41.1899L278.911 39.9999C278.868 39.9753 278.82 39.9624 278.771 39.9624C278.722 39.9624 278.673 39.9753 278.631 39.9999L276.401 41.1699C276.351 41.1976 276.294 41.2105 276.237 41.207C276.18 41.2035 276.125 41.1838 276.079 41.1502C276.032 41.1166 275.997 41.0705 275.976 41.0172C275.955 40.964 275.95 40.906 275.961 40.8499L276.381 38.3699C276.391 38.3209 276.388 38.2701 276.373 38.2226C276.357 38.1751 276.328 38.1327 276.291 38.0999L274.491 36.3399C274.452 36.2993 274.425 36.249 274.412 36.1942C274.4 36.1394 274.402 36.0823 274.42 36.0289C274.437 35.9755 274.469 35.9278 274.511 35.891C274.554 35.8542 274.605 35.8296 274.661 35.8199L277.151 35.4599C277.2 35.4521 277.246 35.4326 277.286 35.403C277.326 35.3734 277.359 35.3346 277.381 35.2899L278.501 33.0299C278.53 32.9897 278.568 32.9573 278.613 32.9356C278.657 32.9139 278.707 32.9035 278.756 32.9055C278.806 32.9075 278.854 32.9217 278.897 32.9469C278.939 32.9721 278.975 33.0075 279.001 33.0499Z" fill="#F4F4F4"/>
<path d="M292.791 33.0499L293.901 35.3099C293.924 35.3537 293.957 35.3917 293.997 35.4211C294.036 35.4506 294.082 35.4706 294.131 35.4799L296.621 35.8399C296.676 35.8496 296.728 35.8742 296.77 35.911C296.813 35.9478 296.844 35.9955 296.862 36.0489C296.879 36.1023 296.882 36.1595 296.869 36.2142C296.857 36.269 296.83 36.3194 296.791 36.3599L295.001 38.1199C294.965 38.1539 294.938 38.1964 294.922 38.2436C294.906 38.2907 294.902 38.341 294.911 38.3899L295.341 40.8699C295.349 40.9264 295.342 40.9841 295.319 41.0367C295.297 41.0892 295.26 41.1345 295.214 41.1677C295.167 41.2008 295.112 41.2204 295.056 41.2243C294.999 41.2282 294.942 41.2163 294.891 41.1899L292.661 39.9999C292.616 39.9754 292.567 39.9625 292.516 39.9625C292.465 39.9625 292.415 39.9754 292.371 39.9999L290.141 41.1699C290.091 41.1977 290.034 41.2105 289.977 41.2071C289.92 41.2036 289.865 41.1839 289.819 41.1502C289.773 41.1166 289.737 41.0705 289.716 41.0173C289.695 40.9641 289.69 40.906 289.701 40.8499L290.131 38.3699C290.137 38.321 290.132 38.2714 290.116 38.2247C290.101 38.178 290.075 38.1353 290.041 38.0999L288.231 36.3399C288.192 36.2994 288.165 36.249 288.152 36.1942C288.14 36.1395 288.142 36.0823 288.16 36.0289C288.177 35.9755 288.209 35.9278 288.251 35.891C288.294 35.8542 288.346 35.8296 288.401 35.8199L290.901 35.4599C290.949 35.4488 290.994 35.428 291.033 35.3987C291.073 35.3695 291.106 35.3325 291.131 35.2899L292.241 33.0299C292.269 32.9805 292.31 32.9397 292.359 32.912C292.409 32.8843 292.465 32.8707 292.522 32.8728C292.579 32.8748 292.634 32.8924 292.681 32.9237C292.729 32.9549 292.767 32.9986 292.791 33.0499Z" fill="#F4F4F4"/>
<path d="M89.0714 279.15L68.1514 457.7C68.1251 457.943 68.147 458.189 68.2157 458.423C68.2844 458.658 68.3986 458.876 68.5518 459.067C68.7051 459.257 68.8943 459.415 69.1087 459.533C69.3231 459.65 69.5585 459.724 69.8014 459.75C70.0444 459.776 70.2901 459.754 70.5246 459.686C70.7591 459.617 70.9778 459.503 71.1681 459.349C71.3585 459.196 71.5168 459.007 71.634 458.793C71.7513 458.578 71.8251 458.343 71.8514 458.1L102.001 280" fill="white"/>
<path d="M88.9099 280.49L102.2 280.54L88.1699 286.58L88.9099 280.49Z" fill="#011843"/>
<path d="M441.86 279.15L462.78 459.39C462.806 459.633 462.783 459.878 462.714 460.113C462.644 460.347 462.53 460.565 462.376 460.755C462.222 460.945 462.033 461.103 461.818 461.219C461.603 461.336 461.368 461.409 461.125 461.435C460.882 461.461 460.636 461.438 460.402 461.369C460.168 461.299 459.95 461.185 459.76 461.031C459.57 460.877 459.412 460.688 459.295 460.473C459.179 460.258 459.106 460.023 459.08 459.78L428.92 280" fill="white"/>
<path d="M428.932 280.49H442.112L430.072 286.95L428.932 280.49Z" fill="#011843"/>
<path d="M361.82 280.49L352.4 457.42C352.375 457.673 352.401 457.928 352.478 458.171C352.555 458.413 352.681 458.637 352.848 458.828C353.014 459.02 353.219 459.175 353.448 459.285C353.677 459.395 353.927 459.456 354.18 459.466C354.434 459.475 354.688 459.433 354.924 459.341C355.161 459.249 355.377 459.109 355.558 458.931C355.738 458.752 355.881 458.538 355.976 458.303C356.071 458.067 356.116 457.814 356.11 457.56L375 280.49" fill="white"/>
<path d="M361.822 280.49H375.001L361.521 286.95L361.822 280.49Z" fill="#011843"/>
<path d="M455.391 267.89H67.3711V280.53H455.391V267.89Z" fill="#5C9EFF"/>
<path d="M303.441 267.89H56.9707V280.53H303.441V267.89Z" fill="#337ACC"/>
<path d="M222.362 186.39C222.364 187.052 222.169 187.699 221.803 188.249C221.437 188.8 220.915 189.23 220.304 189.484C219.694 189.738 219.021 189.805 218.372 189.676C217.724 189.548 217.128 189.23 216.66 188.762C216.192 188.294 215.874 187.698 215.745 187.049C215.617 186.4 215.684 185.728 215.938 185.117C216.192 184.507 216.621 183.985 217.172 183.619C217.723 183.253 218.37 183.058 219.032 183.06C219.469 183.06 219.902 183.146 220.306 183.314C220.71 183.481 221.077 183.726 221.386 184.035C221.695 184.345 221.941 184.712 222.108 185.116C222.275 185.52 222.362 185.953 222.362 186.39Z" stroke="#DBE2EF" stroke-width="0.82" stroke-miterlimit="10"/>
<path d="M314 112.39C314.002 113.051 313.808 113.698 313.442 114.248C313.076 114.799 312.556 115.229 311.945 115.483C311.335 115.737 310.663 115.805 310.015 115.677C309.366 115.549 308.77 115.232 308.302 114.765C307.834 114.299 307.515 113.704 307.385 113.055C307.256 112.407 307.321 111.735 307.574 111.124C307.826 110.513 308.254 109.991 308.804 109.624C309.353 109.256 309.999 109.06 310.66 109.06C311.544 109.06 312.392 109.411 313.019 110.035C313.645 110.659 313.998 111.506 314 112.39Z" stroke="#DBE2EF" stroke-width="0.82" stroke-miterlimit="10"/>
<path d="M395.362 182.06C395.362 182.721 395.166 183.367 394.798 183.917C394.431 184.466 393.908 184.894 393.297 185.147C392.687 185.399 392.015 185.465 391.366 185.335C390.718 185.206 390.123 184.887 389.656 184.418C389.19 183.95 388.872 183.354 388.745 182.706C388.617 182.057 388.684 181.385 388.939 180.775C389.193 180.165 389.623 179.644 390.173 179.278C390.724 178.912 391.371 178.718 392.032 178.72C392.47 178.72 392.904 178.807 393.308 178.975C393.713 179.143 394.081 179.389 394.39 179.699C394.699 180.009 394.944 180.378 395.111 180.783C395.278 181.188 395.363 181.622 395.362 182.06Z" stroke="#DBE2EF" stroke-width="0.82" stroke-miterlimit="10"/>
<path d="M155.361 196.39C157.2 196.39 158.691 194.899 158.691 193.06C158.691 191.221 157.2 189.73 155.361 189.73C153.522 189.73 152.031 191.221 152.031 193.06C152.031 194.899 153.522 196.39 155.361 196.39Z" stroke="#DBE2EF" stroke-width="0.82" stroke-miterlimit="10"/>
<path d="M185.751 178.11C185.751 178.561 185.618 179.002 185.367 179.377C185.117 179.752 184.761 180.044 184.344 180.217C183.927 180.389 183.469 180.434 183.027 180.346C182.584 180.258 182.178 180.041 181.859 179.722C181.54 179.403 181.323 178.997 181.235 178.555C181.147 178.113 181.192 177.654 181.365 177.238C181.538 176.821 181.83 176.465 182.205 176.214C182.58 175.964 183.02 175.83 183.471 175.83C184.076 175.83 184.656 176.07 185.084 176.498C185.511 176.925 185.751 177.505 185.751 178.11Z" stroke="#DBE2EF" stroke-width="0.82" stroke-miterlimit="10"/>
<path d="M240.691 157.72C240.691 158.171 240.557 158.612 240.307 158.987C240.056 159.362 239.7 159.654 239.283 159.826C238.867 159.999 238.408 160.044 237.966 159.956C237.524 159.868 237.118 159.651 236.799 159.332C236.48 159.013 236.263 158.607 236.175 158.165C236.087 157.722 236.132 157.264 236.304 156.847C236.477 156.431 236.769 156.075 237.144 155.824C237.519 155.574 237.96 155.44 238.411 155.44C239.016 155.44 239.595 155.68 240.023 156.108C240.451 156.535 240.691 157.115 240.691 157.72Z" stroke="#DBE2EF" stroke-width="0.82" stroke-miterlimit="10"/>
<path d="M182.001 103.39C182.001 103.841 181.868 104.282 181.617 104.657C181.367 105.032 181.011 105.324 180.594 105.496C180.177 105.669 179.719 105.714 179.277 105.626C178.834 105.538 178.428 105.321 178.109 105.002C177.79 104.683 177.573 104.277 177.485 103.835C177.397 103.392 177.442 102.934 177.615 102.517C177.788 102.101 178.08 101.745 178.455 101.494C178.83 101.244 179.27 101.11 179.721 101.11C180.326 101.11 180.906 101.35 181.334 101.778C181.761 102.205 182.001 102.785 182.001 103.39Z" stroke="#DBE2EF" stroke-width="0.82" stroke-miterlimit="10"/>
<path d="M365.361 180.39C365.361 180.841 365.227 181.282 364.977 181.657C364.726 182.031 364.37 182.324 363.953 182.496C363.537 182.669 363.078 182.714 362.636 182.626C362.194 182.538 361.787 182.321 361.469 182.002C361.15 181.683 360.933 181.277 360.845 180.835C360.757 180.392 360.802 179.934 360.974 179.517C361.147 179.101 361.439 178.745 361.814 178.494C362.189 178.244 362.63 178.11 363.081 178.11C363.685 178.11 364.265 178.35 364.693 178.778C365.121 179.205 365.361 179.785 365.361 180.39Z" stroke="#DBE2EF" stroke-width="0.82" stroke-miterlimit="10"/>
<path d="M104.001 213.72C104.001 214.171 103.868 214.612 103.617 214.987C103.367 215.362 103.011 215.654 102.594 215.826C102.177 215.999 101.719 216.044 101.277 215.956C100.834 215.868 100.428 215.651 100.109 215.332C99.7903 215.013 99.5732 214.607 99.4852 214.165C99.3972 213.722 99.4424 213.264 99.615 212.847C99.7875 212.431 100.08 212.075 100.455 211.824C100.83 211.574 101.27 211.44 101.721 211.44C102.326 211.44 102.906 211.68 103.334 212.108C103.761 212.535 104.001 213.115 104.001 213.72Z" stroke="#DBE2EF" stroke-width="0.82" stroke-miterlimit="10"/>
<path d="M194.49 142.59V135.52" stroke="#DBE2EF" stroke-width="0.82" stroke-linecap="round" stroke-linejoin="round"/>
<path d="M190.961 139.06H198.031" stroke="#DBE2EF" stroke-width="0.82" stroke-linecap="round" stroke-linejoin="round"/>
<path d="M273.16 83.2599V76.1899" stroke="#DBE2EF" stroke-width="0.82" stroke-linecap="round" stroke-linejoin="round"/>
<path d="M269.621 79.7202H276.691" stroke="#DBE2EF" stroke-width="0.82" stroke-linecap="round" stroke-linejoin="round"/>
<path d="M337.16 177.92V170.85" stroke="#DBE2EF" stroke-width="0.82" stroke-linecap="round" stroke-linejoin="round"/>
<path d="M333.621 174.39H340.691" stroke="#DBE2EF" stroke-width="0.82" stroke-linecap="round" stroke-linejoin="round"/>
<path d="M109.82 246.59V239.52" stroke="#DBE2EF" stroke-width="0.82" stroke-linecap="round" stroke-linejoin="round"/>
<path d="M106.291 243.06H113.361" stroke="#DBE2EF" stroke-width="0.82" stroke-linecap="round" stroke-linejoin="round"/>
<path d="M141.16 301.26V294.19" stroke="#DBE2EF" stroke-width="0.82" stroke-linecap="round" stroke-linejoin="round"/>
<path d="M137.621 297.72H144.691" stroke="#DBE2EF" stroke-width="0.82" stroke-linecap="round" stroke-linejoin="round"/>
<path d="M230.891 424.89C230.311 421.15 228.361 416.2 227.531 412.51C227.991 412.22 245.641 405.61 250.021 404.23L254.811 424.38" fill="#FF6258"/>
<path d="M233.151 307.79H226.001C232.738 322.044 238.69 336.656 243.831 351.56C256.061 387.48 258.751 406.71 258.751 406.71L209.671 418L177.671 302.22C177.671 302.22 172.071 288.98 180.221 280.32H251.001L233.151 307.79Z" fill="#011843"/>
<path d="M255.18 424.06L261.43 459.18H244.43L241.85 446.59L233.36 459.18H202.78L202.73 457.18C202.676 455.136 203.31 453.133 204.53 451.492C205.751 449.851 207.486 448.667 209.46 448.13C217.46 446.01 227.95 440.58 230.77 424.88" fill="#011843"/>
<path d="M230.3 436.61L227.84 433.82C229.76 433.46 231.19 432.62 233.1 432.26C231.69 431.5 230.03 430.55 228.62 429.79C230.4 429.11 233.86 427.53 233.86 427.53" stroke="white" stroke-linecap="round" stroke-linejoin="round"/>
<path d="M170 418.86C170 418.86 178.08 406.09 180.37 403.08C180.89 403.25 197.29 412.52 201.17 414.99L188.81 431.61" fill="#FF6258"/>
<path d="M192.09 428L178.09 460.8L163.9 451.52L168.63 439.58L154.63 445.45L129 428.73L130.06 426.99C131.136 425.249 132.766 423.92 134.689 423.216C136.611 422.512 138.714 422.475 140.66 423.11C148.51 425.71 160.26 426.92 171.22 415.32" fill="#011843"/>
<path d="M165.681 425.23C164.89 423.822 164.182 422.37 163.561 420.88C165.671 421.19 167.741 421.6 169.861 421.88C169.121 420.16 168.251 418.24 167.511 416.52C169.401 417.29 171.311 417.89 173.201 418.66" stroke="white" stroke-linecap="round" stroke-linejoin="round"/>
<path d="M292.622 312.23H308.932C320.532 312.23 332.402 306.61 333.362 295.06C333.636 289.912 332.447 284.791 329.932 280.29H248.932C248.932 280.29 220.082 306.29 197.352 336.56C168.442 375 159.102 393 159.102 393L207.102 421.85L279.182 319.21C280.698 317.054 282.71 315.294 285.049 314.079C287.389 312.864 289.986 312.23 292.622 312.23Z" fill="#00BAD0"/>
<path d="M202.861 418.3C227.791 384.89 251.811 348.61 276.341 314.36C279.451 310.02 284.741 307.79 290.071 307.65L321.501 306.79" stroke="#011843" stroke-width="0.89" stroke-linecap="round" stroke-linejoin="round"/>
<path d="M169.311 382.15L215.021 409.87" stroke="#011843" stroke-width="0.89" stroke-linecap="round" stroke-linejoin="round"/>
<path d="M244.07 295.1L251.31 287.34" stroke="#011843" stroke-width="0.89" stroke-linecap="round" stroke-linejoin="round"/>
<path d="M250.391 292.07C248.871 294.944 247.632 297.958 246.691 301.07" stroke="#011843" stroke-width="0.89" stroke-linecap="round" stroke-linejoin="round"/>
<path d="M167.781 390.5L180.841 372" stroke="#011843" stroke-width="0.89" stroke-linecap="round" stroke-linejoin="round"/>
<path d="M334.931 206.15C334.651 198.81 333.321 193.41 327.481 187.72C325.188 185.345 322.556 183.323 319.671 181.72C315.451 179.61 309.961 178.72 305.941 176.86L299.941 169.57L288.591 170.62L280.741 169C275.601 178.92 258.311 179.39 249.741 187.69C243.891 193.38 242.571 198.78 242.291 206.12C241.551 225.28 244.151 267.86 244.151 267.86H330.211C330.211 267.86 335.671 225.31 334.931 206.15Z" fill="#F4F4F4"/>
<g opacity="0.44">
<mask id="mask0_108_167" style="mask-type:luminance" maskUnits="userSpaceOnUse" x="242" y="168" width="115" height="100">
<path d="M356.13 248.28C353.257 236.705 349.582 225.344 345.13 214.28C341.87 206.37 338.13 198.53 332.68 191.95C327.4 185.61 320.28 180.5 312.21 178.89C310.064 178.317 307.965 177.581 305.93 176.69L299.93 169.4L288.58 170.4L280.69 168.82C275.55 178.73 258.26 179.2 249.69 187.51C243.84 193.19 242.52 198.6 242.24 205.93C241.5 225.1 244.1 267.68 244.1 267.68H330.16C330.16 267.68 330.27 266.84 330.45 265.35L341.01 266.12C343.288 266.302 345.576 265.94 347.686 265.063C349.795 264.186 351.666 262.82 353.144 261.077C354.621 259.334 355.662 257.264 356.181 255.039C356.701 252.814 356.683 250.497 356.13 248.28Z" fill="white"/>
</mask>
<g mask="url(#mask0_108_167)">
<path d="M332.84 279.89V169.03" stroke="#B0BFD6" stroke-width="0.97" stroke-linecap="round" stroke-linejoin="round"/>
<path d="M314.43 277.29V169.03" stroke="#B0BFD6" stroke-width="0.97" stroke-linecap="round" stroke-linejoin="round"/>
<path d="M296.02 280.21V169.03" stroke="#B0BFD6" stroke-width="0.97" stroke-linecap="round" stroke-linejoin="round"/>
<path d="M277.539 273.73L277.669 169.03" stroke="#B0BFD6" stroke-width="0.97" stroke-linecap="round" stroke-linejoin="round"/>
<path d="M259.199 281.21V169.03" stroke="#B0BFD6" stroke-width="0.97" stroke-linecap="round" stroke-linejoin="round"/>
<path d="M229.119 193.67H351.319" stroke="#B0BFD6" stroke-width="0.97" stroke-linecap="round" stroke-linejoin="round"/>
<path d="M229.119 210.2H351.319" stroke="#B0BFD6" stroke-width="0.97" stroke-linecap="round" stroke-linejoin="round"/>
<path d="M229.119 227.38H351.319" stroke="#B0BFD6" stroke-width="0.97" stroke-linecap="round" stroke-linejoin="round"/>
<path d="M229.119 244.56L351.319 245.53" stroke="#B0BFD6" stroke-width="0.97" stroke-linecap="round" stroke-linejoin="round"/>
<path d="M229.119 261.74H351.319" stroke="#B0BFD6" stroke-width="0.97" stroke-linecap="round" stroke-linejoin="round"/>
</g>
</g>
<path d="M254.611 230.56C255.391 240.34 256.841 252.07 258.381 261.76" stroke="#011843" stroke-width="0.89" stroke-linecap="round" stroke-linejoin="round"/>
<path d="M284.711 179.85L288.881 187.06" stroke="#011843" stroke-width="0.89" stroke-linecap="round" stroke-linejoin="round"/>
<path d="M284.671 179.89L279.481 186.01L274.781 176.45" stroke="#011843" stroke-width="0.89" stroke-linecap="round" stroke-linejoin="round"/>
<path d="M288.932 186.95L304.682 177.42" stroke="#011843" stroke-width="0.89" stroke-linecap="round" stroke-linejoin="round"/>
<path d="M284.741 180.34C284.861 189.7 278.121 198.84 275.971 207.95C274.381 214.67 275.151 221.69 275.971 228.54C276.637 233.82 277.304 239.087 277.971 244.34" stroke="#011843" stroke-width="0.89" stroke-linecap="round" stroke-linejoin="round"/>
<path d="M259.661 181.82C258.882 184.694 258.429 187.646 258.311 190.62" stroke="#011843" stroke-width="0.89" stroke-linecap="round" stroke-linejoin="round"/>
<path d="M238.891 216.92C239.321 209.92 239.751 204.92 242.361 198.39C244.971 191.86 252.491 183.71 258.691 181.89C253.471 194.89 250.491 239.12 256.691 267.23H241.491" fill="#F4F4F4"/>
<path d="M271.901 255.13C273.565 256.548 275.356 257.81 277.251 258.9C279.001 260 283.741 261 285.801 261H288.801L286.801 246.73C286.921 246.73 286.671 246.73 286.801 246.73H285.221C279.591 245.73 273.681 244.13 268.131 242.73C262.363 245.262 257.054 248.732 252.421 253C252.175 253.218 251.984 253.492 251.865 253.799C251.747 254.105 251.703 254.436 251.738 254.763C251.774 255.09 251.887 255.404 252.068 255.678C252.249 255.952 252.494 256.179 252.781 256.34L253.001 256.46C252.924 256.672 252.897 256.899 252.923 257.123C252.949 257.347 253.027 257.561 253.151 257.75C253.731 258.75 254.801 258.7 255.711 258.75C256.621 258.8 258.471 257.65 258.471 257.65C258.471 257.65 259.331 258.81 259.931 258.75C262.472 258.46 264.966 257.845 267.351 256.92C268.651 256.49 271.901 255.13 271.901 255.13Z" fill="#FF6258"/>
<path d="M252.641 256.27C256.641 253.564 260.574 250.727 264.441 247.76" stroke="#011843" stroke-width="0.89" stroke-linecap="round" stroke-linejoin="round"/>
<path d="M259.841 258.5C259.512 258.463 259.205 258.32 258.965 258.093C258.725 257.866 258.565 257.566 258.511 257.24C258.454 256.85 258.515 256.452 258.684 256.097C258.853 255.741 259.123 255.443 259.461 255.24C263.109 252.837 266.609 250.216 269.941 247.39" stroke="#011843" stroke-width="0.89" stroke-linecap="round" stroke-linejoin="round"/>
<path d="M284.1 257.18C281.438 256.91 278.905 255.898 276.79 254.26C276.334 253.907 275.786 253.692 275.211 253.643C274.636 253.593 274.06 253.71 273.55 253.98C271.03 255.29 268.55 256.46 265.9 257.62C265.696 257.719 265.472 257.771 265.245 257.773C265.018 257.775 264.793 257.726 264.587 257.63C264.382 257.535 264.2 257.394 264.055 257.22C263.91 257.045 263.806 256.84 263.75 256.62C263.745 256.537 263.745 256.453 263.75 256.37C263.75 255.77 275.14 247.44 275.14 247.44" stroke="#011843" stroke-width="0.89" stroke-linecap="round" stroke-linejoin="round"/>
<path d="M311.331 178.88C319.771 180.28 327.211 185.54 332.691 192.12C338.171 198.7 341.881 206.53 345.141 214.44C349.593 225.504 353.269 236.865 356.141 248.44C358.561 257.96 350.611 267.3 340.791 267.73C320.221 268.64 289.921 268.04 289.921 267.89L285.871 233.89L302.371 234.89L315.191 236.53C315.191 236.53 304.491 209.06 305.711 192.05C305.911 189.06 311.331 178.88 311.331 178.88Z" fill="#F4F4F4"/>
<path d="M315.621 236.55C315.621 236.55 304.371 209.55 306.301 192.65C307.301 184.14 311.571 180.01 311.571 180.01" stroke="#011843" stroke-width="0.89" stroke-linecap="round" stroke-linejoin="round"/>
<path d="M324.701 236.74L285.861 233.89L289.581 267.83" stroke="#011843" stroke-width="0.89" stroke-linecap="round" stroke-linejoin="round"/>
<path d="M301.861 235.06L303.441 267.89" stroke="#011843" stroke-width="0.89" stroke-linecap="round" stroke-linejoin="round"/>
<path d="M306.561 202C306.257 198.236 306.834 194.453 308.245 190.951C309.656 187.448 311.863 184.322 314.691 181.82" stroke="#011843" stroke-width="0.89" stroke-linecap="round" stroke-linejoin="round"/>
<path d="M315.361 236.05L322.361 231.61" stroke="#011843" stroke-width="0.89" stroke-linecap="round" stroke-linejoin="round"/>
<path d="M343.871 265.09C346.019 264.393 347.982 263.223 349.616 261.665C351.25 260.107 352.513 258.202 353.311 256.09" stroke="#011843" stroke-width="0.89" stroke-linecap="round" stroke-linejoin="round"/>
<path d="M300.471 170.41L279.201 171.95L279.281 149.26H300.101L300.471 170.41Z" fill="#F74343"/>
<path d="M300.471 170.41L284.671 179.89L279.201 172C279.201 172 283.891 162.11 289.681 162.11C295.471 162.11 300.471 170.41 300.471 170.41Z" fill="#F74343"/>
<path d="M298.881 154.28L279.201 170.27V162.84" fill="#011843"/>
<path d="M283.8 122.56C281.59 129.34 275.46 134.42 269.09 137.61C270.34 130.42 275.13 123.21 283.8 122.56Z" fill="#011843"/>
<path d="M301.731 143.1C301.621 148.48 300.631 154.2 296.441 157.94C294.333 159.731 291.893 161.09 289.261 161.94C285.381 163.3 280.331 164.46 276.261 163.34C271.601 162.05 269.481 157.62 268.681 153.18C268.154 149.948 268.006 146.666 268.241 143.4C268.811 132.32 274.531 122.98 284.241 122.98C297.671 123 301.931 132 301.731 143.1Z" fill="#FF6258"/>
<path d="M306.561 146C306.381 149.39 303.741 152 300.691 151.82C297.641 151.64 295.301 148.77 295.491 145.38C295.681 141.99 298.311 139.38 301.371 139.55C304.431 139.72 306.751 142.65 306.561 146Z" fill="#FF6258"/>
<path d="M271.741 144.76C271.744 145.176 271.65 145.587 271.466 145.96C271.281 146.333 271.012 146.658 270.679 146.907C270.347 147.157 269.96 147.326 269.551 147.399C269.141 147.473 268.72 147.449 268.321 147.33L268.171 147.27C268.171 147.27 268.111 145.85 268.171 144.45C268.241 143.22 268.351 142.19 268.351 142.19L268.561 142.14C268.731 142.119 268.902 142.119 269.071 142.14C269.771 142.14 270.442 142.414 270.942 142.904C271.441 143.394 271.728 144.061 271.741 144.76Z" fill="#E52929"/>
<path d="M292.081 144.76C292.083 145.291 291.927 145.81 291.633 146.253C291.339 146.695 290.921 147.04 290.431 147.244C289.941 147.448 289.401 147.502 288.88 147.399C288.36 147.296 287.881 147.04 287.506 146.665C287.13 146.289 286.875 145.811 286.772 145.29C286.669 144.769 286.723 144.23 286.927 143.74C287.131 143.25 287.476 142.831 287.918 142.537C288.36 142.244 288.88 142.088 289.411 142.09C290.118 142.092 290.796 142.375 291.296 142.875C291.796 143.375 292.078 144.053 292.081 144.76Z" fill="#E52929"/>
<path d="M279.852 139.53C278.392 141.64 276.541 144.07 276.741 145.33C276.865 145.957 277.217 146.516 277.728 146.898C278.24 147.28 278.875 147.459 279.512 147.4" stroke="#011843" stroke-width="0.97" stroke-linecap="round" stroke-linejoin="round"/>
<path d="M275.472 142C275.472 142.16 275.424 142.317 275.335 142.45C275.246 142.583 275.12 142.687 274.972 142.748C274.824 142.81 274.661 142.826 274.504 142.794C274.346 142.763 274.202 142.686 274.089 142.573C273.976 142.459 273.898 142.315 273.867 142.158C273.836 142.001 273.852 141.838 273.913 141.69C273.975 141.542 274.078 141.415 274.212 141.326C274.345 141.237 274.501 141.19 274.662 141.19C274.876 141.19 275.082 141.275 275.234 141.427C275.386 141.579 275.472 141.785 275.472 142Z" fill="#011843"/>
<path d="M285.001 142C285.001 142.16 284.953 142.317 284.864 142.45C284.775 142.583 284.649 142.687 284.501 142.748C284.353 142.81 284.19 142.826 284.033 142.794C283.876 142.763 283.731 142.686 283.618 142.573C283.505 142.459 283.428 142.315 283.396 142.158C283.365 142.001 283.381 141.838 283.443 141.69C283.504 141.542 283.608 141.415 283.741 141.326C283.874 141.237 284.031 141.19 284.191 141.19C284.406 141.19 284.612 141.275 284.764 141.427C284.916 141.579 285.001 141.785 285.001 142Z" fill="#011843"/>
<path d="M275.4 151.26C276.205 151.974 277.192 152.451 278.251 152.636C279.311 152.822 280.401 152.709 281.4 152.31" stroke="#011843" stroke-width="0.97" stroke-linecap="round" stroke-linejoin="round"/>
<path d="M313.311 162.62C311.182 163.848 308.651 164.18 306.277 163.542C303.903 162.904 301.88 161.35 300.651 159.22C298.091 154.79 304.041 148.33 304.041 146.56C304.041 144.28 314.141 145.56 316.701 149.96C317.93 152.089 318.263 154.618 317.627 156.992C316.992 159.366 315.439 161.39 313.311 162.62Z" fill="#011843"/>
<path d="M307.511 147.79C307.42 142.713 306.294 137.707 304.201 133.08C301.951 128.54 298.141 124.61 293.321 123.08C289.755 122.059 285.981 122.011 282.391 122.94C285.846 125.452 289.024 128.325 291.871 131.51C296.901 137 300.841 144.44 307.511 147.79Z" fill="#011843"/>
<path d="M301.81 140.14C292.67 139.71 282.63 132.32 279.74 123.64C282.44 122.483 285.42 122.144 288.31 122.665C291.2 123.185 293.874 124.543 296 126.57C299.56 129.81 301.56 133 301.81 140.14Z" fill="#011843"/>
<path d="M281.481 126.92C278.522 130.676 275.032 133.981 271.12 136.73C270.06 137.46 268.571 138.13 267.601 137.28C267.338 136.989 267.143 136.644 267.031 136.268C266.919 135.893 266.891 135.497 266.951 135.11C267.031 133.39 268.161 131.17 268.951 129.63C269.895 127.654 271.331 125.953 273.12 124.69C274.279 123.943 275.553 123.392 276.891 123.06C278.998 122.401 281.268 122.486 283.321 123.3" fill="#011843"/>
<path d="M300.861 158.06C301.611 162.06 304.861 165.33 308.111 165.68C309.784 165.796 311.456 165.438 312.934 164.648C314.413 163.857 315.639 162.666 316.471 161.21C317.274 159.741 317.752 158.117 317.875 156.447C317.997 154.778 317.761 153.101 317.181 151.53" stroke="#011843" stroke-width="0.89" stroke-linecap="round" stroke-linejoin="round"/>
<path d="M280.681 126.39C280.151 134.77 289.831 139.02 296.941 137.12" stroke="#011843" stroke-width="0.89" stroke-linecap="round" stroke-linejoin="round"/>
<path d="M268.062 136.88C267.585 136.404 267.22 135.827 266.995 135.192C266.77 134.557 266.69 133.88 266.762 133.21C267.002 126.94 274.832 119.58 281.032 124.27" stroke="#011843" stroke-width="0.89" stroke-linecap="round" stroke-linejoin="round"/>
<path d="M285.84 153.63H289.57C294.02 152.84 300.25 150.1 303.16 146.63" stroke="#011843" stroke-width="0.89" stroke-linecap="round" stroke-linejoin="round"/>
<path d="M288.841 154.77H286.091C285.768 154.77 285.457 154.641 285.228 154.413C285 154.184 284.871 153.873 284.871 153.55C284.874 153.228 285.003 152.92 285.232 152.694C285.46 152.467 285.769 152.34 286.091 152.34H288.841C289.163 152.34 289.472 152.467 289.7 152.694C289.929 152.92 290.058 153.228 290.061 153.55C290.061 153.71 290.03 153.869 289.968 154.017C289.907 154.165 289.817 154.299 289.704 154.413C289.59 154.526 289.456 154.616 289.308 154.677C289.16 154.738 289.001 154.77 288.841 154.77Z" fill="#F4F4F4"/>
<path d="M304.361 144.28C304.361 146.69 303.361 149.22 301.651 150.11H299.501C296.811 150.11 294.631 147.5 294.631 144.28C294.631 141.06 296.811 138.44 299.501 138.44H301.411C303.301 139.24 304.361 141.73 304.361 144.28Z" fill="#9AAECC"/>
<path d="M297.8 142.1C298.365 137.524 297.175 132.904 294.47 129.17C292.166 126.058 289.003 123.687 285.37 122.35L285.01 122.23V121.73L288.6 121.79C293.07 121.79 298.33 127.88 299.71 132.12C301.09 136.36 301.31 140.9 301.71 145.35" fill="#9AAECC"/>
<path d="M306.14 144.28C306.14 147.5 303.96 150.11 301.28 150.11C298.6 150.11 296.42 147.5 296.42 144.28C296.42 141.06 298.59 138.44 301.28 138.44C303.97 138.44 306.14 141.05 306.14 144.28Z" fill="#F4F4F4"/>
<path d="M299.18 142.1C299.745 137.524 298.555 132.904 295.85 129.17C293.15 125.49 289.5 122.54 285.01 121.73H290.01C292.06 122.15 293.982 123.048 295.62 124.35C298.08 126.434 299.972 129.107 301.12 132.12C302.5 136.37 302.72 140.9 303.12 145.35" fill="#F4F4F4"/>
<path d="M303.18 144.32C303.098 144.636 302.929 144.923 302.692 145.149C302.455 145.374 302.159 145.528 301.839 145.594C301.519 145.66 301.187 145.635 300.88 145.521C300.573 145.408 300.304 145.211 300.104 144.953C299.903 144.695 299.779 144.385 299.746 144.06C299.712 143.735 299.77 143.407 299.913 143.113C300.057 142.819 300.279 142.571 300.556 142.398C300.833 142.224 301.153 142.131 301.48 142.13C301.992 142.205 302.454 142.474 302.771 142.883C303.088 143.291 303.235 143.806 303.18 144.32Z" stroke="#011843" stroke-width="0.89" stroke-linecap="round" stroke-linejoin="round"/>
<path d="M236.711 267.89H289.151L288.501 262.3H236.711V267.89Z" fill="#213E66"/>
<path d="M246.44 267.89L217.77 212.37C217.13 211.129 216.16 210.088 214.968 209.362C213.776 208.635 212.407 208.25 211.01 208.25H138.43C137.701 208.25 136.984 208.436 136.347 208.791C135.71 209.146 135.174 209.658 134.791 210.278C134.407 210.898 134.188 211.606 134.155 212.334C134.122 213.063 134.275 213.787 134.6 214.44L158.6 262.78C159.497 264.336 160.789 265.627 162.344 266.524C163.9 267.422 165.664 267.893 167.46 267.89H246.44Z" fill="#213E66"/>
<path d="M240.28 267.89L211.61 212.37C210.969 211.129 210 210.088 208.808 209.362C207.615 208.635 206.246 208.25 204.85 208.25H132.27C131.542 208.253 130.826 208.441 130.191 208.796C129.555 209.152 129.021 209.664 128.638 210.283C128.255 210.902 128.036 211.608 128.001 212.336C127.966 213.063 128.117 213.787 128.44 214.44L152.44 262.78C153.337 264.336 154.628 265.627 156.184 266.524C157.739 267.422 159.504 267.893 161.3 267.89H240.28Z" fill="#011843"/>
<path d="M211.881 221.8L208.881 215.95C208.24 214.71 207.271 213.671 206.078 212.946C204.886 212.221 203.517 211.838 202.121 211.84H181.361" stroke="#DBE2EF" stroke-width="0.66" stroke-linecap="round" stroke-linejoin="round"/>
<path d="M180.46 242.29C183.05 243.97 186.2 243.72 187.46 241.73C188.72 239.74 187.71 236.73 185.13 235.07C182.55 233.41 179.39 233.64 178.13 235.63C176.87 237.62 177.87 240.6 180.46 242.29Z" stroke="#DBE2EF" stroke-width="0.82" stroke-miterlimit="10"/>
<path d="M361.371 98.06H322.151C321.566 98.0578 320.989 97.9274 320.46 97.6778C319.931 97.4283 319.463 97.0657 319.089 96.6156C318.715 96.1655 318.445 95.639 318.296 95.073C318.148 94.507 318.126 93.9155 318.231 93.34L319.761 85L321.421 76C321.592 75.0819 322.078 74.2524 322.796 73.6552C323.514 73.0579 324.418 72.7306 325.351 72.73H364.571C365.156 72.7321 365.734 72.8626 366.263 73.1121C366.792 73.3617 367.26 73.7243 367.634 74.1743C368.008 74.6244 368.278 75.151 368.426 75.7169C368.574 76.2829 368.597 76.8745 368.491 77.45L367.061 85.22L365.301 94.8C365.129 95.7162 364.642 96.5434 363.924 97.1386C363.207 97.7339 362.304 98.0598 361.371 98.06Z" fill="#337ACC"/>
<path d="M322.031 72.7202L341.361 87.0602L369.361 72.7202" stroke="#DBE2EF" stroke-width="0.66" stroke-miterlimit="10"/>
<path d="M323.361 95.5601H344.881" stroke="#DBE2EF" stroke-width="0.66" stroke-linecap="round" stroke-linejoin="round"/>
<path d="M347.861 95.5601H351.401" stroke="#DBE2EF" stroke-width="0.66" stroke-linecap="round" stroke-linejoin="round"/>
</svg>
